<svg width="32" height="32" viewBox="0 0 32 32" fill="none" xmlns="http://www.w3.org/2000/svg"><path d="M0 11.0933C0 5.86389 0 3.24916 1.62458 1.62458C3.24916 0 5.86389 0 11.0933 0H20.9067C26.1361 0 28.7508 0 30.3754 1.62458C32 3.24916 32 5.86389 32 11.0933V20.9067C32 26.1361 32 28.7509 30.3754 30.3754C28.7508 32 26.1361 32 20.9067 32H11.0933C5.86389 32 3.24916 32 1.62458 30.3754C0 28.7509 0 26.1361 0 20.9067V11.0933Z" fill="#27244f"></path><path fill-rule="evenodd" clip-rule="evenodd" d="M22.0792 9.70703H11.3059V20.6937H11.306V15.2004H16.7993V20.6937H22.2926V9.92036C22.2926 9.80254 22.1971 9.70703 22.0792 9.70703Z" fill="white"></path><rect x="16.5862" y="15.2002" width="0.213334" height="0.213333" fill="white"></rect><path d="M11.3059 15.2002H16.5859C16.7037 15.2002 16.7992 15.2957 16.7992 15.4135V20.6935H11.5192C11.4014 20.6935 11.3059 20.598 11.3059 20.4802V15.2002Z" fill="#9593FF"></path><path d="M16.7987 20.6934H22.292L16.9808 26.0046C16.9136 26.0718 16.7987 26.0242 16.7987 25.9292V20.6934Z" fill="#9593FF"></path><path d="M11.3062 15.2004H6.07038C5.97535 15.2004 5.92776 15.0855 5.99496 15.0183L11.3062 9.70703V15.2004Z" fill="#9593FF"></path></svg>